<svg width="29.733521" height="29.000000" viewBox="0 0 29.7335 29" fill="none" xmlns="http://www.w3.org/2000/svg" xmlns:xlink="http://www.w3.org/1999/xlink">
	<desc>
			Created with Pixso.
	</desc>
	<defs/>
	<path id="Vector" d="M14.86 0C6.65 0 0 6.65 0 14.86C0 21.44 4.25 27 10.16 28.97C10.9 29.1 11.18 28.65 11.18 28.26C11.18 27.91 11.16 26.74 11.16 25.49C7.43 26.18 6.46 24.58 6.16 23.74C6 23.32 5.27 22 4.64 21.64C4.12 21.37 3.38 20.68 4.62 20.66C5.79 20.64 6.63 21.74 6.91 22.18C8.25 24.43 10.38 23.8 11.24 23.41C11.37 22.44 11.76 21.79 12.19 21.42C8.88 21.05 5.42 19.77 5.42 14.08C5.42 12.46 6 11.13 6.95 10.09C6.8 9.71 6.28 8.19 7.09 6.15C7.09 6.15 8.34 5.76 11.18 7.67C12.37 7.34 13.64 7.17 14.9 7.17C16.16 7.17 17.43 7.34 18.62 7.67C21.46 5.74 22.7 6.15 22.7 6.15C23.52 8.19 23 9.71 22.85 10.09C23.8 11.13 24.38 12.45 24.38 14.08C24.38 19.79 20.9 21.05 17.59 21.42C18.13 21.89 18.6 22.78 18.6 24.17C18.6 26.16 18.58 27.76 18.58 28.26C18.58 28.65 18.86 29.12 19.6 28.97C22.55 27.97 25.12 26.07 26.93 23.54C28.75 21.01 29.73 17.98 29.73 14.86C29.73 6.65 23.08 0 14.86 0Z" fill="#FFFFFF" fill-opacity="1.000000" fill-rule="evenodd"/>
</svg>
