<svg width="26.000000" height="26.000000" viewBox="0 0 26 26" fill="none" xmlns="http://www.w3.org/2000/svg" xmlns:xlink="http://www.w3.org/1999/xlink">
	<desc>
			Created with Pixso.
	</desc>
	<defs/>
	<path id="Vector" d="M13 0C5.81 0 0 5.81 0 13C0 20.18 5.81 26 13 26C20.18 26 26 20.18 26 13C26 5.81 20.18 0 13 0ZM19.38 8.9L17.25 18.96C17.09 19.67 16.66 19.84 16.07 19.51L12.82 17.11L11.25 18.62C11.08 18.79 10.93 18.94 10.6 18.94L10.83 15.63L16.85 10.19C17.12 9.96 16.8 9.83 16.45 10.06L9.01 14.75L5.8 13.74C5.1 13.52 5.08 13.05 5.94 12.71L18.48 7.88C19.06 7.67 19.57 8.02 19.38 8.9Z" fill="#FFFFFF" fill-opacity="1.000000" fill-rule="nonzero"/>
</svg>
