<svg width="25.000000" height="25.000000" viewBox="0 0 25 25" fill="none" xmlns="http://www.w3.org/2000/svg" xmlns:xlink="http://www.w3.org/1999/xlink">
	<desc>
			Created with Pixso.
	</desc>
	<defs/>
	<path id="Vector" d="M16.33 0L8.66 0C1.65 0 0 1.65 0 8.66L0 16.33C0 23.34 1.65 25 8.66 25L16.33 25C23.34 25 25 23.34 25 16.33L25 8.66C25 1.65 23.32 0 16.33 0ZM20.18 17.83L18.36 17.83C17.67 17.83 17.46 17.28 16.23 16.03C15.15 14.99 14.67 14.85 14.41 14.85C14.04 14.85 13.93 14.96 13.93 15.47L13.93 17.11C13.93 17.55 13.79 17.81 12.63 17.81C10.7 17.81 8.57 16.65 7.07 14.48C4.81 11.3 4.19 8.92 4.19 8.43C4.19 8.16 4.3 7.92 4.81 7.92L6.63 7.92C7.09 7.92 7.26 8.13 7.44 8.62C8.34 11.22 9.84 13.49 10.46 13.49C10.69 13.49 10.79 13.39 10.79 12.8L10.79 10.12C10.72 8.89 10.07 8.78 10.07 8.34C10.07 8.13 10.25 7.92 10.53 7.92L13.38 7.92C13.77 7.92 13.91 8.13 13.91 8.59L13.91 12.2C13.91 12.59 14.09 12.73 14.2 12.73C14.43 12.73 14.62 12.59 15.04 12.17C16.35 10.7 17.28 8.45 17.28 8.45C17.41 8.18 17.62 7.93 18.08 7.93L19.9 7.93C20.44 7.93 20.57 8.21 20.44 8.6C20.21 9.66 17.99 12.8 17.99 12.8C17.8 13.12 17.73 13.26 17.99 13.61C18.18 13.88 18.82 14.43 19.24 14.92C20.02 15.8 20.62 16.54 20.78 17.06C20.95 17.57 20.69 17.83 20.18 17.83L20.18 17.83Z" fill="#FFFFFF" fill-opacity="1.000000" fill-rule="nonzero"/>
</svg>
