<svg width="25.000000" height="25.119263" viewBox="0 0 25 25.1193" fill="none" xmlns="http://www.w3.org/2000/svg" xmlns:xlink="http://www.w3.org/1999/xlink">
	<desc>
			Created with Pixso.
	</desc>
	<defs/>
	<path id="Vector" d="M21.35 3.65C19 1.29 15.88 0 12.55 0C5.69 0 0.1 5.58 0.1 12.44C0.1 14.64 0.67 16.78 1.76 18.67L0 25.11L6.59 23.38C8.41 24.37 10.46 24.9 12.54 24.9L12.55 24.9C19.41 24.9 24.99 19.31 25 12.45C25 9.13 23.7 6 21.35 3.65ZM12.55 22.8L12.54 22.8C10.69 22.8 8.87 22.3 7.28 21.35L6.9 21.13L2.98 22.16L4.03 18.34L3.78 17.95C2.75 16.3 2.2 14.4 2.2 12.44C2.2 6.74 6.84 2.1 12.55 2.1C15.32 2.1 17.91 3.18 19.87 5.13C21.82 7.09 22.89 9.69 22.89 12.45C22.89 18.16 18.25 22.8 12.55 22.8ZM18.22 15.05C17.91 14.89 16.38 14.14 16.1 14.04C15.81 13.93 15.61 13.88 15.4 14.19C15.19 14.5 14.59 15.2 14.41 15.41C14.23 15.62 14.05 15.64 13.74 15.49C13.43 15.33 12.43 15 11.24 13.94C10.31 13.12 9.69 12.1 9.51 11.79C9.33 11.48 9.49 11.31 9.64 11.15C9.78 11.02 9.95 10.79 10.11 10.61C10.27 10.43 10.32 10.3 10.42 10.09C10.52 9.88 10.47 9.7 10.39 9.55C10.32 9.39 9.69 7.86 9.43 7.24C9.18 6.63 8.93 6.71 8.74 6.7C8.56 6.7 8.35 6.69 8.14 6.69C7.93 6.69 7.6 6.77 7.31 7.08C7.02 7.39 6.22 8.15 6.22 9.68C6.22 11.21 7.34 12.69 7.49 12.89C7.65 13.1 9.69 16.24 12.81 17.59C13.55 17.91 14.13 18.1 14.58 18.25C15.32 18.48 16 18.45 16.54 18.37C17.14 18.28 18.38 17.62 18.64 16.89C18.9 16.17 18.9 15.54 18.82 15.41C18.74 15.28 18.53 15.2 18.22 15.05Z" fill="#FFFFFF" fill-opacity="1.000000" fill-rule="evenodd"/>
</svg>
